<svg id="Fondo-Inferior" xmlns="http://www.w3.org/2000/svg" width="726" height="824" viewBox="0 0 726 824">
  <path id="Fondo-Forma" d="M0,774V100.28A442.8,442.8,0,0,1,281.325,0C526.912,0,726,199.077,726,444.65c0,9.01-.268,17.958-.815,27.145C718.075,591.263,663.536,698.263,580.08,774Z" transform="translate(0 0)" fill="rgba(10,10,10,0.78)"/>
  <g id="AvionLogo" transform="translate(0 100.521)">
    <path id="Trazado_11" data-name="Trazado 11" d="M.057,361.743Q.057,182.487,0,3.238C0,.6.522,0,2.836,0Q316.765.11,630.7,0c2.314,0,2.836.6,2.836,3.238q-.091,358.5,0,717c0,2.642-.522,3.238-2.836,3.238q-313.929-.1-627.858,0c-2.32,0-2.836-.6-2.836-3.238Q.1,540.986.057,361.743Zm245.386,88.43c0-2.876.051-5.337,0-7.772-.221-8.7-2.836-16.334-8.269-22.461-5.28-5.946-12.239-5.278-16.946,1.3-5.041,7.008-5.671,14.806-3.4,23.212.857,3.238,2.053,6.062,4.537,8.121a21.866,21.866,0,0,0,15.426,5c3.363-.13,3.635,0,2.144,3.581-2.376,5.706-5.1,11.23-7.679,16.839-6.874,14.818-17.337,25.174-30.721,31.734a167.053,167.053,0,0,1-16.481,6.93c-8.62,3.128-17.241,6.373-26.037,8.692-12.783,3.368-25.782,2.234-38.7.758-4.911-.563-9.783-1.509-14.66-2.37-2.388-.421-3.318,1.483-4.1,3.362-.113.272,1.282,1.943,2.093,2.059,9.017,1.568,18.023,3.29,27.092,4.32a78.849,78.849,0,0,0,32.015-3.238c12.954-3.886,25.736-8.187,37.9-14.767,8.047-4.358,15.879-9.281,22.118-16.385,5.864-6.651,10.832-14.377,15.879-21.916a45.721,45.721,0,0,0,7.475-19.429,3.42,3.42,0,0,1,1.7-2.441,18.728,18.728,0,0,0,11.439-7.817c5.377-8.225,10.673-16.755,14.541-25.958,3.794-9.035,5.8-19.054,8.552-28.645,1.792-6.25,4.373-11.243,10.662-13.121a135.609,135.609,0,0,0,18.92-7.591c31.946-15.129,63.246-31.838,92.771-52.518,8.716-6.107,16.753-13.542,24.829-20.776,2.649-2.377,3.97-6.755,6.709-8.9s6.833-2.053,9.76-4.041c9.7-6.6,19.209-13.6,28.68-20.628,10.854-8.057,21.687-16.191,32.36-24.52,8.4-6.574,16.543-13.555,23.173-22.538,1.633-2.208,1.775-4.637-.244-6.127-2.5-1.839-5.439-4.08-8.189-4.08-6.851,0-13.7,1.231-20.559,1.826a18.141,18.141,0,0,1-5.671-.369,48.46,48.46,0,0,1-5.842-2.247c-9.936-3.808-19.764-2.079-28.282,3.75-19.339,13.089-38.139,27.337-57.1,41.236q-22.974,16.839-45.812,33.937c-2.54,1.9-5,2.688-8.115,1.943a64.636,64.636,0,0,0-12.84-1.885,71.839,71.839,0,0,0-14.144.842c-5.433.887-6.857,5.453-3.5,10.265a35.579,35.579,0,0,0,4.452,5.349c4.815,4.618,4.645,4.138-.612,7.726q-16.447,11.211-32.383,23.27c-5.671,4.313-11.127,8.53-18.4,5.686a.8.8,0,0,0-.306,0c-8.728,1.017-16.8-2.629-24.488-6.081-12.789-5.758-24.988-13.212-37.5-19.786a5.654,5.654,0,0,0-4.611-.311c-5.212,2.487-10.288,5.349-15.369,8.173-3.511,1.943-7,3.97-10.407,6.14-2.58,1.652-2.546,3.122-.153,4.806,5.348,3.763,10.668,7.571,16.027,11.308q21.891,15.246,43.805,30.439c3.074,2.144,2.977,2.649-.057,4.877-4.911,3.608-9.817,7.254-14.564,11.133-2.518,2.066-4.452,5.071-3.079,8.756s4.7,3.173,7.565,3.238a5.9,5.9,0,0,0,1.832-.285c4.168-1.3,8.365-2.474,12.477-3.957,7.515-2.714,14.944-5.738,22.481-8.381,4.656-1.632,9.443-2.8,14.581-4.307-3.89,11.606-7.322,23.05-11.564,34.086a175.685,175.685,0,0,1-10.713,22.149,16.229,16.229,0,0,1-12.494,8.808Z" fill="none"/>
    <path id="Trazado_12" data-name="Trazado 12" d="M367.228,695.09c6.749-.811,12.815-5.869,16.356-13.64a291.926,291.926,0,0,0,14.044-34.2c5.561-17,10.059-34.71,15.159-52.63-6.736,2.32-13.01,4.13-19.114,6.65-9.881,4.08-19.62,8.75-29.471,12.94-5.39,2.29-10.892,4.12-16.356,6.11a6.668,6.668,0,0,1-2.4.44c-3.754-.1-8.126.69-9.918-5s.743-10.33,4.037-13.52c6.223-6,12.639-11.62,19.092-17.19,3.977-3.44,4.1-4.22.074-7.53q-28.7-23.53-57.425-47c-7.026-5.77-14-11.65-21.01-17.46-3.137-2.6-3.182-4.87.2-7.42,4.461-3.35,9.04-6.47,13.643-9.48,6.691-4.36,13.315-8.78,20.148-12.62,1.7-1,4.3-.6,6.044.48,16.4,10.15,32.393,21.66,49.157,30.55,10.074,5.33,20.661,11,32.1,9.39a.9.9,0,0,1,.4,0c9.531,4.39,16.654-2.12,24.118-8.78q20.913-18.62,42.451-35.93c6.892-5.54,7.115-4.8.8-11.93a53.917,53.917,0,0,1-5.836-8.26c-4.4-7.43-2.535-14.48,4.587-15.85a80.207,80.207,0,0,1,18.542-1.3,72.868,72.868,0,0,1,16.832,2.91c4.082,1.17,7.308,0,10.639-3q29.976-26.31,60.057-52.4C599.06,368,623.706,346,649.036,325.62c11.152-9,24.051-11.67,37.076-5.79,2.558,1.15,5.041,2.74,7.658,3.47a20.287,20.287,0,0,0,7.435.57c8.988-.92,17.969-2.83,26.95-2.82,3.606,0,7.435,3.46,10.736,6.3,2.647,2.3,2.461,6,.32,9.46-8.691,13.87-19.33,24.65-30.378,34.8-13.992,12.9-28.192,25.42-42.422,37.86-12.416,10.85-24.876,21.66-37.6,31.85-3.836,3.07-9.174,2.9-12.795,6.24s-5.323,10.07-8.8,13.74c-10.587,11.17-21.122,22.65-32.549,32.08-38.7,31.93-79.736,57.73-121.615,81.09a163.264,163.264,0,0,1-24.8,11.72c-8.245,2.9-11.628,10.61-13.977,20.26-3.613,14.81-6.238,30.28-11.211,44.23-5.07,14.21-12.014,27.38-19.062,40.08a24.9,24.9,0,0,1-15,12.07c-.937.26-2.089,2.34-2.23,3.77a78.433,78.433,0,0,1-9.8,30c-6.6,11.64-13.115,23.57-20.817,33.84-8.215,11-18.453,18.57-28.995,25.3-15.94,10.16-32.712,16.79-49.678,22.8-13.828,4.9-27.813,6.89-41.968,5-11.9-1.59-23.694-4.25-35.515-6.67-1.063-.22-2.892-2.76-2.743-3.18,1.026-2.9,2.23-5.84,5.375-5.19,6.394,1.33,12.78,2.79,19.218,3.66,16.936,2.28,33.976,4,50.734-1.17,11.531-3.58,22.831-8.59,34.132-13.42a202.457,202.457,0,0,0,21.6-10.7c17.546-10.08,31.225-26.07,40.273-49,3.4-8.62,6.951-17.15,10.066-26,1.955-5.55,1.6-5.73-2.81-5.53a25.974,25.974,0,0,1-20.222-7.72c-3.264-3.18-4.832-7.56-5.948-12.54-2.922-13-2.119-25,4.461-35.84,6.171-10.1,15.293-11.13,22.215-2,7.137,9.46,10.55,21.25,10.84,34.68C367.295,686.85,367.228,690.65,367.228,695.09ZM430,574.8c2.111-.51,4.312-.65,6.312-1.58,33.456-15.48,65.476-35.46,97.438-55.64a46.082,46.082,0,0,0,4.1-3.34c-7.568-6.34-10.676-7.27-14.75-4.56q-44.184,29.38-88.345,58.9c-1.866,1.26-3.137,4.13-4.713,6.23l-2.424.19.082.72ZM599.351,403.19l.371.93c4.974-1.45,9.925-3.05,14.929-4.29A79.6,79.6,0,0,1,625.892,398c.743-.08,1.643,1.38,2.468,2.13a28.965,28.965,0,0,1-2.282,3.12c-.357.39-1.049.19-1.576.33-15.8,4.07-31.359,9.1-45.8,19.12a18.521,18.521,0,0,1-6.475,3c-1.189.26-2.572-1.08-3.873-1.69.743-1.46,1.3-3.42,2.342-4.28,2.4-2,5.2-3.13,7.561-5.16,11.152-9.5,22.1-19.48,33.359-28.72,9.851-8.08,18.772-18.35,29.954-23.35a20.7,20.7,0,0,0,5.145-3.16c11.323-9.83,23.91-15.86,36.541-21.59,3.286-1.49,7.219-.91,10.81-.5,2.877.32,4.461,3.29,4.513,7.23.168,6.31-1.97,12.331-5.725,16.12-21.493,21.94-43.217,43.46-64.681,65.44-3.591,3.68-6.342,8.85-9.479,13.33l.744,1.4c2.342-1.14,4.885-1.83,7-3.49,6.156-4.83,12.237-9.84,18.17-15.15,20.534-18.39,41.18-36.57,61.387-55.59,9-8.48,17.152-18.64,25.463-28.38,1.375-1.61,2.6-5.57,2.045-7.44s-3.487-3.3-5.346-3.24c-7.122.24-14.245,1-21.337,1.88-6.49.82-13.04,3.89-19.166-1.86-.3-.29-.8-.14-1.182-.32-6.29-3-12.847-2.79-19.151-1.26a65.909,65.909,0,0,0-17.531,7.46c-4.646,2.72-8.8,7-13.129,10.72Q578.905,393.47,521.206,443c-1.725,1.48-3.316,3.24-5.16,5.05,8.253,4.32,16.126,7.74,23.508,12.53a96.829,96.829,0,0,1,16.207,14c3.138,3.25,2.914,7.56-.171,11.14a72.681,72.681,0,0,1-9.948,9.22c-2.974,2.4-6.275,4.17-9.4,6.28-1.487,1-2.431,2.42-.3,3.72,4.193,2.56,8.446,5.15,13.1,1.59,4.216-3.22,8.505-6.25,12.684-9.55,6.267-4.95,12.772-9.5,18.639-15.22,9.122-8.91,17.895-18.5,26.556-28.21,1.554-1.73,1.873-5.45,2.765-8.26-2.691-.27-5.382-.71-8.074-.72-.81,0-1.747,1-2.424,1.83-3.636,4.54-7.174,9.22-10.8,13.76-2.357,2.95-4.616,6.16-7.286,8.48a5.755,5.755,0,0,1-5.316.8c-4.773-1.69-12.1-14.72-12.364-21.33a18.327,18.327,0,0,1,.215-3.78c1.123-6.48,4.535-9.81,8.721-8.62,4.974,1.42,9.546,9.1,8.178,14.56-.677,2.61-2.64,4.71-4.238,6.74-.647.83-1.859.84-2.974,1.28,4.193,6.14,6.691,6.29,10.475.58,2.431-3.64,4.461-7.79,6.959-11.32,5.2-7.32,11.449-12.3,19.122-9.14,3.375,1.4,4.788,1,6.126-3a11.277,11.277,0,0,1,2.29-3.78c8.922-10.16,17.754-20.54,26.928-30.3,14.6-15.53,29.478-30.59,44.161-46,2.379-2.49,5.844-5.76,4.1-10-1.829-4.48-6.1-3.35-9.249-1.94-6.379,2.88-12.862,5.7-18.817,9.83-16.17,11.21-32.155,22.92-48.072,34.79C611.149,392.54,605.35,398.08,599.351,403.19ZM406.706,584.28c7.323,1.35,12.758-2.49,13.672-10.68.58-5.24,2.706-7.38,5.74-9.31q24.69-15.74,49.329-31.59c13.642-8.74,27.3-17.43,40.89-26.21a14.66,14.66,0,0,0,2.394-2.65c-.744-1-1.294-2.33-2.156-2.9-10.869-7.24-21.761-14.44-32.712-21.4a4.728,4.728,0,0,0-4.624,0c-6.119,3.72-12.416,7.18-18.074,12-11.4,9.63-22.438,20-33.6,30.19a13.683,13.683,0,0,0-1.762,2.7c.847.71,1.643,1.83,2.55,2a75.636,75.636,0,0,0,8.029,1.24c6.32.78,12.639,1.29,18.928,2.42,1.42.25,2.632,2.55,3.933,3.91-.908,1.32-1.643,3.35-2.759,3.85-9.97,4.45-19.895,9.25-30.08,12.57-3.859,1.26-8.52-.39-12.542-2-2.974-1.18-5.427-4.94-4.959-9.61.632-6.33-1.74-6.91-5.383-6.71-15.107.81-29.062-6.06-42.608-13.52s-26.467-17.16-39.664-25.87c-4.7-3.1-9.152-3.14-13.813.72-5.472,4.57-11.323,8.4-16.988,12.57-1.442,1.07-2.781,2.38-4.461,3.85,1.331,1.23,2.067,2,2.862,2.64,22.943,18.4,45.856,36.9,68.874,55.15,13.761,10.91,9.33,12,25.508,1.74,7.784-4.91,16.044-7.64,24.712-6.35,5.2.78,6.907,6.28,3.955,12.19C410.326,578.36,408.482,581.2,406.706,584.28ZM362.046,685.9c.788-12.92-2.9-24.07-11.04-32.77-4.364-4.66-10.193-3.43-13.107,3.06-3.36,7.47-3.769,15.22-1.985,23.52,2.974,13.75,6.059,17.44,16.654,18.51C362.983,699.27,361.882,699.61,362.046,685.9ZM543.167,471.65c.1-.36.208-.72.32-1.09a82.283,82.283,0,0,0-7.071-4.58c-19.59-10-39.961-14.91-60.837-16.35a12.978,12.978,0,0,0-5.2.59c-4,1.41-4.542,3.87-1.316,7.15,4.937,5,10.163,9.55,15.36,14.1a3.246,3.246,0,0,0,3.048.5c13.382-4.84,26.995-4.27,40.608-2.83C533.123,469.67,538.141,470.8,543.167,471.65Zm-48.815,4.26c-.082.82-.163,1.64-.238,2.46,10.364,6.88,20.713,13.82,31.144,20.54a3.876,3.876,0,0,0,3.769-.29c6.141-3.74,12.245-7.58,18.237-11.71,1.926-1.34,3.472-3.66,5.2-5.53-2-1.25-3.948-3.39-6.015-3.62-12.735-1.44-25.486-2.71-38.251-3.47C503.608,474,498.984,475.32,494.352,475.91ZM364.99,597.55l.283,2.12c4.037-.69,8.468-.2,12.044-2.32,7.873-4.67,15.4-10.45,22.891-16.18a18.556,18.556,0,0,0,7.546-12.49c-2.022,0-3.762-.17-5.487,0-8.475.95-16.282,4.69-23.649,10.36-1.688,1.3-2.758,1.93-1.755,5.23.446,1.45-1.063,5-2.372,6.2-2.922,2.82-6.29,4.78-9.486,7.08Zm4.461-9.72c-.2-.52-.394-1.05-.587-1.58a5.9,5.9,0,0,0-2.23.58c-6.632,4.81-13.33,9.49-19.791,14.7-2.357,1.91-4.312,4.93-6.1,7.82-1.353,2.19-1.212,4.79,1.487,4.86a31.364,31.364,0,0,0,20.572-7.67c-1.71-.59-3.413-.24-5-.69-1.435-.41-3.442-1.27-3.9-2.69-.4-1.27.61-4.18,1.636-5.27a43.291,43.291,0,0,1,6.944-5.44c2.379-1.68,4.617-3.08,6.959-4.62ZM442.481,537c-.045-.86-.1-1.72-.141-2.58-8.029-.66-16.059-1.61-24.088-1.72-1.487,0-2.974,3.41-4.461,5.24,1.323,1.71,2.505,3.7,4.022,5a3.994,3.994,0,0,0,3.539.62C428.422,541.47,435.44,539.18,442.481,537Zm125.6-87.85c2.446.2,3.717.27,5.026.43.87.1,2.4.68,2.483.41.416-1.34.937-3.84.528-4.23-1.926-1.83-4.55-4.86-6.171-4.19-3.093,1.25-2.87,5.35-1.881,7.55Z" transform="translate(-142.724 -204.508)" fill="#fff"/>
    <path id="Trazado_13" data-name="Trazado 13" d="M745,403.19c8-5.11,15.83-10.65,24.15-15.25,21.41-11.87,42.91-23.58,64.66-34.79,8-4.13,16.73-6.95,25.31-9.83,4.23-1.41,10-2.54,12.44,1.94,2.35,4.27-2.31,7.54-5.51,10-19.75,15.39-39.76,30.45-59.4,46-12.34,9.76-24.2,20.14-36.22,30.3a11.291,11.291,0,0,0-3.08,3.78c-1.8,4-3.7,4.41-8.24,3-10.32-3.16-18.73,1.82-25.72,9.14-3.37,3.53-6.09,7.68-9.36,11.32-5.11,5.71-8.45,5.56-14.09-.58,1.47-.44,3.1-.45,4-1.28,2.15-2,4.79-4.13,5.7-6.74,1.88-5.46-4.27-13.14-11-14.56-5.63-1.19-10.22,2.14-11.73,8.62a13.7,13.7,0,0,0-.29,3.78c.35,6.61,10.21,19.64,16.63,21.33a10,10,0,0,0,7.15-.8c3.59-2.32,6.63-5.53,9.8-8.48,4.88-4.54,9.64-9.22,14.53-13.76.91-.84,2.17-1.84,3.26-1.83,3.62,0,7.24.45,10.86.72-1.2,2.81-1.63,6.53-3.72,8.26-11.65,9.71-23.45,19.3-35.72,28.21-7.89,5.72-16.64,10.27-25.07,15.22-5.62,3.3-11.39,6.33-17.06,9.55-6.26,3.56-12,1-17.62-1.59-2.87-1.3-1.57-2.74.4-3.72,4.21-2.11,8.62-3.88,12.65-6.28a92.9,92.9,0,0,0,13.38-9.22c4.15-3.58,4.45-7.89.23-11.14a127.41,127.41,0,0,0-21.8-14c-9.93-4.79-20.52-8.21-31.62-12.53,2.48-1.81,4.62-3.57,6.94-5.05Q717.5,393.46,795.15,344c5.82-3.71,11.41-8,17.66-10.72a107,107,0,0,1,23.58-7.46c8.48-1.53,17.3-1.75,25.76,1.26.51.18,1.19,0,1.59.32,8.24,5.75,17,2.68,25.78,1.86,9.54-.9,19.12-1.64,28.7-1.88,2.5-.06,6.47,1.43,7.19,3.24s-.9,5.83-2.75,7.44c-11.18,9.74-22.14,19.9-34.25,28.38-27.18,19-54.95,37.2-82.57,55.59-8,5.31-16.16,10.32-24.44,15.15-2.84,1.66-6.26,2.35-9.41,3.49l-1-1.4c4.22-4.48,7.92-9.65,12.75-13.33,28.88-22,58.1-43.5,87-65.44a19.29,19.29,0,0,0,7.7-16.12c-.08-3.94-2.2-6.91-6.07-7.23-4.83-.41-10.12-1-14.54.5-17,5.73-33.92,11.76-49.15,21.59a30.741,30.741,0,0,1-6.92,3.16c-15,5-27,15.27-40.29,23.35C746.35,395,731.64,405,716.63,414.51c-3.19,2-6.94,3.17-10.17,5.16-1.4.86-2.12,2.82-3.15,4.28,1.75.61,3.61,1.95,5.21,1.69a29.531,29.531,0,0,0,8.71-3c19.42-10,40.35-15.05,61.6-19.12.71-.14,1.64.06,2.12-.33a31.21,31.21,0,0,0,3.07-3.12c-1.11-.75-2.27-2.21-3.32-2.13a141.429,141.429,0,0,0-15.08,1.85c-6.73,1.24-13.39,2.84-20.08,4.29Z" transform="translate(-413.188 -136.905)" fill="none"/>
    <path id="Trazado_14" data-name="Trazado 14" d="M485.88,584.28c2.39-3.08,4.87-5.92,7-9,4-5.91,1.71-11.41-5.32-12.19-11.66-1.29-22.77,1.44-33.24,6.35-21.76,10.21-15.8,9.17-34.31-1.74-31-18.25-61.78-36.75-92.64-55.15-1.07-.64-2.06-1.41-3.85-2.64,2.29-1.47,4.09-2.78,6-3.85,7.62-4.21,15.46-8.05,22.87-12.61,6.27-3.86,12.26-3.82,18.58-.72,17.75,8.71,35.09,18.4,53.35,25.87s37,14.33,57.31,13.52c4.9-.2,8.09.38,7.24,6.71-.63,4.67,2.66,8.43,6.67,9.61,5.41,1.57,11.68,3.22,16.87,2,13.7-3.32,27.05-8.12,40.46-12.57,1.5-.5,2.49-2.53,3.71-3.85-1.75-1.36-3.38-3.66-5.29-3.91-8.44-1.13-17-1.64-25.46-2.42-3.61-.33-7.23-.62-10.8-1.24-1.22-.21-2.29-1.33-3.43-2a14.08,14.08,0,0,1,2.37-2.7c15-10.15,29.85-20.56,45.19-30.19,7.61-4.78,16.08-8.24,24.31-12a8.31,8.31,0,0,1,6.22,0q22.14,10.5,44,21.4c1.16.57,1.94,1.92,2.9,2.9a17.378,17.378,0,0,1-3.22,2.65c-18.33,8.78-36.7,17.47-55,26.21Q545.16,548.5,512,564.29c-4.08,1.93-6.94,4.07-7.72,9.31C503,581.79,495.73,585.63,485.88,584.28Z" transform="translate(-194.572 -186.379)" fill="none"/>
    <path id="Trazado_15" data-name="Trazado 15" d="M517.3,574.83c2.08-2.12,3.79-5,6.3-6.25q59.32-29.64,118.83-58.9c5.48-2.71,9.66-1.78,19.84,4.56a62.005,62.005,0,0,1-5.51,3.34c-43,20.18-86.07,40.16-131.06,55.64-2.69.93-5.65,1.07-8.49,1.58Z" transform="translate(-257.296 -190.433)" fill="none"/>
    <path id="Trazado_16" data-name="Trazado 16" d="M425.81,685.9c-.22,13.71,1.26,13.37-12.75,12.32-14.25-1.07-18.42-4.76-22.4-18.51-2.4-8.3-1.85-16.05,2.67-23.52,3.92-6.49,11.76-7.72,17.63-3.06C421.91,661.83,426.87,673,425.81,685.9Z" transform="translate(-174.22 -239.509)" fill="none"/>
    <path id="Trazado_17" data-name="Trazado 17" d="M669.43,471.65c-6.76-.85-13.51-2-20.3-2.51-18.31-1.44-36.61-2-54.62,2.83a5.62,5.62,0,0,1-4.1-.5c-7-4.55-14-9.07-20.66-14.1-4.34-3.28-3.61-5.74,1.77-7.15a23.169,23.169,0,0,1,7-.59c28.08,1.44,55.48,6.31,81.83,16.35,3.28,1.25,6.34,3,9.51,4.58C669.71,470.93,669.57,471.29,669.43,471.65Z" transform="translate(-270.314 -161.677)" fill="none"/>
    <path id="Trazado_18" data-name="Trazado 18" d="M603.77,475.91c6.2-.59,12.45-1.89,18.62-1.62,17.17.76,34.32,2,51.45,3.47,2.78.23,5.4,2.37,8.09,3.62-2.32,1.87-4.4,4.19-7,5.53-8.06,4.13-16.27,8-24.53,11.71a6.79,6.79,0,0,1-5.07.29c-14-6.72-28-13.66-41.89-20.54Z" transform="translate(-280.951 -170.932)" fill="none"/>
    <path id="Trazado_19" data-name="Trazado 19" d="M429.79,597.55c4.3-2.3,8.83-4.26,12.78-7,1.76-1.25,3.79-4.75,3.19-6.2-1.35-3.3.09-3.93,2.36-5.23,9.91-5.67,20.41-9.41,31.81-10.36,2.32-.2,4.66,0,7.38,0-1.4,6.27-5.5,9.86-10.15,12.49-10.08,5.73-20.2,11.51-30.79,16.18-4.81,2.12-10.77,1.63-16.2,2.32Z" transform="translate(-196.143 -206.107)" fill="none"/>
    <path id="Trazado_20" data-name="Trazado 20" d="M435.76,587.83c-3.15,1.54-6.34,3-9.43,4.62s-6.54,3.23-9.34,5.44c-1.38,1.09-2.74,4-2.2,5.27.61,1.42,3.31,2.28,5.24,2.69,2.13.45,4.42.1,6.72.69a51.569,51.569,0,0,1-27.67,7.67c-3.61-.07-3.8-2.67-2-4.86,2.41-2.89,5-5.91,8.21-7.82,8.69-5.21,17.7-9.89,26.62-14.7a10.19,10.19,0,0,1,3-.58C435.23,586.78,435.49,587.31,435.76,587.83Z" transform="translate(-177.733 -211.871)" fill="none"/>
    <path id="Trazado_21" data-name="Trazado 21" d="M534,537c-9.45,2.21-18.89,4.5-28.38,6.56a6.92,6.92,0,0,1-4.76-.62c-2-1.3-3.63-3.29-5.41-5,2-1.83,4-5.25,6-5.24,10.8.11,21.6,1.06,32.4,1.72C533.85,535.25,533.92,536.11,534,537Z" transform="translate(-222.131 -189.571)" fill="none"/>
    <path id="Trazado_22" data-name="Trazado 22" d="M702.92,449.12c-1.33-2.2-1.63-6.3,2.51-7.58,2.18-.67,5.71,2.36,8.3,4.19.55.39-.15,2.89-.71,4.23-.11.27-2.17-.31-3.34-.41C708,449.39,706.21,449.32,702.92,449.12Z" transform="translate(-307.161 -156.749)" fill="none"/>
    <path id="Trazado_23" data-name="Trazado 23" d="M517.21,574.8l-3.15.91L514,575l3.33-.17Z" transform="translate(-223.16 -202.698)" fill="#fff"/>
  </g>
</svg>
