<svg id="ICO-PASSWORD" xmlns="http://www.w3.org/2000/svg" width="30" height="30" viewBox="0 0 30 30">
  <rect id="Rectángulo_10" data-name="Rectángulo 10" width="30" height="30" fill="none"/>
  <path id="ICO-PASSWORD-2" data-name="ICO-PASSWORD" d="M15,2C11.416,2,8.5,5.4,8.5,9.583v3.5h-2A1.648,1.648,0,0,0,5,14.833V28.25A1.648,1.648,0,0,0,6.5,30h17A1.648,1.648,0,0,0,25,28.25V14.833a1.648,1.648,0,0,0-1.5-1.75h-2v-3.5C21.5,5.4,18.584,2,15,2Zm0,1.167c3.043,0,5.5,2.866,5.5,6.417v3.5H9.5v-3.5C9.5,6.033,11.957,3.167,15,3.167ZM6.5,14.25h17a.538.538,0,0,1,.5.583V28.25a.538.538,0,0,1-.5.583H6.5A.538.538,0,0,1,6,28.25V14.833A.538.538,0,0,1,6.5,14.25ZM9,20.667A1.181,1.181,0,0,0,9,23a1.181,1.181,0,0,0,0-2.333Zm4,0A1.181,1.181,0,0,0,13,23a1.181,1.181,0,0,0,0-2.333Zm4,0A1.181,1.181,0,0,0,17,23a1.181,1.181,0,0,0,0-2.333Zm4,0a1.181,1.181,0,1,0,1,1.167A1.093,1.093,0,0,0,21,20.667Z" transform="translate(0 -1)" fill="#d93e30"/>
</svg>
